[ConversionWorker] Logging FFmpeg output to: ffmpeg_logs\ffmpeg_conversion_t_wav_20250525_152654.log\n[ConversionWorker] Getting duration with command: ffprobe -v error -show_entries format=duration -of default=noprint_wrappers=1:nokey=1 Z:\AAAAA01\t.wav\n[ConversionWorker] Duration for t.wav: 11418446 ms\n[ConversionWorker] Starting FFmpeg for t.wav: ffmpeg -i Z:\AAAAA01\t.wav -b:a 256k -vn -y -loglevel error -stats -progress pipe:1 Z:\AAAAA01\t.mp3\n[ConversionWorker] FFmpeg process started. PID: 25852\n[STDOUT RAW] bitrate= 154.9kbits/s\n[STDOUT RAW] total_size=101324\n[STDOUT RAW] out_time_us=5233958\n[STDOUT RAW] out_time_ms=5233958\n[STDOUT RAW] out_time=00:00:05.233958\n[STDOUT RAW] dup_frames=0\n[STDOUT RAW] drop_frames=0\n[STDOUT RAW] speed=9.97x\n[STDOUT RAW] progress=continue\n[STDERR RAW] size=      99KiB time=00:00:05.23 bitrate= 154.9kbits/s speed=9.97x\n[STDOUT RAW] bitrate= 157.3kbits/s\n[STDOUT RAW] total_size=197804\n[STDOUT RAW] out_time_us=10057958\n[STDOUT RAW] out_time_ms=10057958\n[STDOUT RAW] out_time=00:00:10.057958\n[STDOUT RAW] dup_frames=0\n[STDOUT RAW] drop_frames=0\n[STDOUT RAW] speed=9.76x\n[STDOUT RAW] progress=continue\n[STDERR RAW] size=     193KiB time=00:00:10.05 bitrate= 157.3kbits/s speed=9.76x\n[STDOUT RAW] bitrate= 145.9kbits/s\n[STDOUT RAW] total_size=786432\n[STDOUT RAW] out_time_us=43129958\n[STDOUT RAW] out_time_ms=43129958\n[STDOUT RAW] out_time=00:00:43.129958\n[STDOUT RAW] dup_frames=0\n[STDOUT RAW] drop_frames=0\n[STDOUT RAW] speed=27.8x\n[STDOUT RAW] progress=continue\n[STDERR RAW] size=     768KiB time=00:00:43.12 bitrate= 145.9kbits/s speed=27.8x\n[STDOUT RAW] bitrate= 146.5kbits/s\n[STDOUT RAW] total_size=2883584\n[STDOUT RAW] out_time_us=157417958\n[STDOUT RAW] out_time_ms=157417958\n[STDOUT RAW] out_time=00:02:37.417958\n[STDOUT RAW] dup_frames=0\n[STDOUT RAW] drop_frames=0\n[STDOUT RAW] speed=76.1x\n[STDOUT RAW] progress=continue\n[STDERR RAW] size=    2816KiB time=00:02:37.41 bitrate= 146.5kbits/s speed=76.1x\n[STDOUT RAW] bitrate= 155.2kbits/s\n[STDOUT RAW] total_size=5505024\n[STDOUT RAW] out_time_us=283753958\n[STDOUT RAW] out_time_ms=283753958\n[STDOUT RAW] out_time=00:04:43.753958\n[STDOUT RAW] dup_frames=0\n[STDOUT RAW] drop_frames=0\n[STDOUT RAW] speed= 110x\n[STDOUT RAW] progress=continue\n[ConversionWorker] Cancel method called.\n[ConversionWorker] Cancellation requested during processing. Terminating FFmpeg.\n[ConversionWorker] Waiting for reader threads to join...\n[STDERR RAW] size=    5376KiB time=00:04:43.75 bitrate= 155.2kbits/s speed= 110x\n[ConversionWorker] Process poll is None after loop, waiting for process to terminate...\n[ConversionWorker] FFmpeg process ended. Return code: 1\n[ConversionWorker] Closing FFmpeg log file.\n